<?xml version="1.0" encoding="UTF-8" standalone="no"?>
<svg
   sodipodi:docname="ebuddy.svg"
   id="svg242"
   class=""
   xml:space="preserve"
   viewBox="0 0 600 512"
   y="0"
   x="0"
   height="512"
   width="600"
   version="1.1"
   inkscape:version="1.2.1 (9c6d41e4, 2022-07-14)"
   xmlns:inkscape="http://www.inkscape.org/namespaces/inkscape"
   xmlns:sodipodi="http://sodipodi.sourceforge.net/DTD/sodipodi-0.dtd"
   xmlns="http://www.w3.org/2000/svg"
   xmlns:svg="http://www.w3.org/2000/svg"><defs
     id="defs246">



































	
	
	
	
	
	
	

	
	





	
	
	

	
	
	
	

	
	

	
		
	
		











<filter
   inkscape:collect="always"
   style="color-interpolation-filters:sRGB"
   id="filter20404"
   x="-0.21718957"
   y="-0.25232467"
   width="1.3715146"
   height="1.5032086"><feGaussianBlur
     inkscape:collect="always"
     stdDeviation="13.480617"
     id="feGaussianBlur20406" /></filter><filter
   inkscape:collect="always"
   style="color-interpolation-filters:sRGB"
   id="filter21860"
   x="-0.040041354"
   y="-0.13431911"
   width="1.1270319"
   height="1.2671451"><feGaussianBlur
     inkscape:collect="always"
     stdDeviation="4.7524462"
     id="feGaussianBlur21862" /></filter><filter
   inkscape:collect="always"
   style="color-interpolation-filters:sRGB"
   id="filter23320"
   x="-0.051236571"
   y="-0.13640124"
   width="1.1336961"
   height="1.2721796"><feGaussianBlur
     inkscape:collect="always"
     stdDeviation="7.7416493"
     id="feGaussianBlur23318" /></filter><filter
   inkscape:collect="always"
   style="color-interpolation-filters:sRGB"
   id="filter35692"
   x="-0.15992157"
   y="-0.19234312"
   width="1.3204567"
   height="1.3805437"><feGaussianBlur
     inkscape:collect="always"
     stdDeviation="12.107707"
     id="feGaussianBlur35694" /></filter><filter
   inkscape:collect="always"
   style="color-interpolation-filters:sRGB"
   id="filter35696"
   x="-0.050458067"
   y="-0.059336569"
   width="1.1009161"
   height="1.1186731"><feGaussianBlur
     inkscape:collect="always"
     stdDeviation="5.131364"
     id="feGaussianBlur35698" /></filter><filter
   inkscape:collect="always"
   style="color-interpolation-filters:sRGB"
   id="filter35700"
   x="-0.010382278"
   y="-0.012209114"
   width="1.0207646"
   height="1.0244182"><feGaussianBlur
     inkscape:collect="always"
     stdDeviation="1.0558313"
     id="feGaussianBlur35702" /></filter><filter
   inkscape:collect="always"
   style="color-interpolation-filters:sRGB"
   id="filter38396"
   x="-0.38610983"
   y="-0.3516857"
   width="1.7722197"
   height="1.7033714"><feGaussianBlur
     inkscape:collect="always"
     stdDeviation="25.046514"
     id="feGaussianBlur38398" /></filter></defs><sodipodi:namedview
     id="namedview244"
     pagecolor="#ffffff"
     bordercolor="#666666"
     borderopacity="1.0"
     inkscape:showpageshadow="2"
     inkscape:pageopacity="0.0"
     inkscape:pagecheckerboard="0"
     inkscape:deskcolor="#d1d1d1"
     showgrid="false"
     inkscape:zoom="1.3796065"
     inkscape:cx="160.91545"
     inkscape:cy="226.87629"
     inkscape:window-width="2048"
     inkscape:window-height="998"
     inkscape:window-x="0"
     inkscape:window-y="25"
     inkscape:window-maximized="1"
     inkscape:current-layer="svg242" /><g
     id="g38835"
     transform="translate(39.196227)"><g
       id="g38408"
       transform="translate(269.64211,50.014261)"><g
         id="g38394"
         transform="matrix(1.1017776,0,0,1.1017776,-263.89581,-0.72485595)"
         style="fill:#00ffff;filter:url(#filter38396)"><g
           id="g38392"
           style="fill:#00ffff"><path
             d="m 201.551,156.944 c 23.313,-17.497 39.906,-48.095 10.98,-96.231 C 183.376,12.196 136.821,-2.098 99.742,0.241 90.601,0.817 82.632,6.798 79.525,15.415 66.922,50.365 67.643,99.06 106.084,140.606 c 38.14,41.221 72.155,33.835 95.467,16.338 z"
             fill="#eda751"
             data-original="#eda751"
             id="path38388"
             style="fill:#00ffff" /><path
             d="m 77.746,20.771 c -10.648,34.458 -8.18,80.368 28.337,119.835 33.059,35.729 63.012,34.932 85.59,22.694 C 182.19,60.479 118.021,29.864 77.746,20.771 Z"
             fill="#ff91ab"
             data-original="#ff91ab"
             id="path38390"
             style="fill:#00ffff;fill-opacity:1" /></g></g><g
         id="g38153"
         transform="translate(-248.62162,7.9732879)"
         style="fill:#ffffff"><g
           id="g38328"
           style="fill:#ffffff"><path
             d="m 201.551,156.944 c 23.313,-17.497 39.906,-48.095 10.98,-96.231 C 183.376,12.196 136.821,-2.098 99.742,0.241 90.601,0.817 82.632,6.798 79.525,15.415 66.922,50.365 67.643,99.06 106.084,140.606 c 38.14,41.221 72.155,33.835 95.467,16.338 z"
             fill="#eda751"
             data-original="#eda751"
             id="path38149"
             style="fill:#ffffff" /><path
             d="m 77.746,20.771 c -10.648,34.458 -8.18,80.368 28.337,119.835 33.059,35.729 63.012,34.932 85.59,22.694 C 182.19,60.479 118.021,29.864 77.746,20.771 Z"
             fill="#ff91ab"
             data-original="#ff91ab"
             id="path38151"
             style="fill:#ffffff;fill-opacity:1" /></g></g></g><g
       id="g38126"
       transform="translate(659.60837,-2.1745333)"><path
         d="m -501.73945,294.45555 c -33.146,16.575 -106.849,90.447 -137.908,157.919 -3.312,7.195 -0.617,15.758 6.263,19.685 48.015,27.407 167.804,23.111 224.694,13.003 23.381,-52.235 4.501,-199.788 4.501,-199.788 z"
         fill="#bd4568"
         data-original="#bd4568"
         id="path34867"
         style="stroke:#89edfa;stroke-width:20;stroke-dasharray:none;stroke-opacity:1;filter:url(#filter35692)" /><g
         id="g38059"><path
           d="m -501.66466,294.02567 c -33.14599,16.575 -106.84889,90.447 -137.90789,157.919 v 0 c -3.312,7.195 -0.617,15.758 6.263,19.685 v 0 c 48.0152,27.407 167.804,23.111 224.6939,13.003 l 1e-4,-0.001 c 23.381,-52.235 4.5009,-199.787 4.5009,-199.787 h -1e-4 z"
           style="fill:#bd4568;filter:url(#filter35696)"
           id="path35317" /><path
           d="m -501.66451,294.02566 c -33.146,16.575 -106.849,90.447 -137.908,157.919 l -2e-4,10e-4 c -3.3116,7.195 -0.6166,15.757 6.2632,19.684 h 4e-4 c 48.01525,27.407 167.8042,23.111 224.6932,13.003 h 10e-4 c 23.38,-52.235 4.5,-199.788 4.5,-199.788 v 0 z"
           style="fill:#ffffff;filter:url(#filter35700)"
           id="path35319" /><path
           d="m -501.66457,294.02566 c -33.146,16.575 -106.849,90.447 -137.908,157.919 -3.312,7.195 -0.617,15.758 6.263,19.685 48.015,27.407 167.804,23.111 224.69401,13.003 23.381,-52.235 4.501,-199.788 4.501,-199.788 z"
           fill="#bd4568"
           data-original="#bd4568"
           id="path132"
           style="fill:#bd4568;fill-opacity:1" /></g></g><path
       style="opacity:0.2;enable-background:new"
       d="m 381.379,350.217 c 0.338,-17.327 -3.093,-34.355 -10.022,-50.24 -16.586,8.645 -31.182,14.809 -38.822,15.79 -13.552,1.739 -23.129,14.135 -21.389,27.688 1.602,12.485 12.245,21.594 24.507,21.594 1.049,0 2.113,-0.066 3.181,-0.204 11.296,-1.449 26.389,-7.004 42.545,-14.628 z"
       fill="#a35f00"
       data-original="#a35f00"
       id="path146" /><path
       style="opacity:0.15;enable-background:new"
       d="M 217.73,448.215 C 170.279,407.722 195.095,340.128 207.719,310.791 l 8.48,-67.223 c -42.958,10.667 -76.496,44.573 -82.021,88.368 -6.671,52.883 29.801,101.944 83.552,116.279 z"
       fill="#c17a00"
       data-original="#c17a00"
       id="path164" /><path
       d="m 80.471953,466.0704 c -3.486,0 -6.993,-1.174 -9.883,-3.579 -6.564,-5.463 -7.457,-15.213 -1.993,-21.777 27.654,-33.227 52.161997,-39.648 73.782997,-45.313 15.905,-4.167 29.64,-7.766 45.06,-22.576 6.161,-5.915 15.949,-5.718 21.863,0.44 5.916,6.159 5.719,15.948 -0.44,21.864 -21.222,20.383 -41.103,25.593 -58.645,30.189 -19.606,5.137 -36.538,9.573 -57.851997,35.18 -3.058,3.675 -7.46,5.572 -11.893,5.572 z"
       fill="#eda751"
       data-original="#eda751"
       id="path134" /><path
       d="m 77.837953,430.4674 c -3.042,3.105 -6.121,6.497 -9.243,10.248 -5.464,6.564 -4.571,16.314 1.993,21.777 2.89,2.405 6.396,3.579 9.883,3.579 4.434,0 8.836,-1.897 11.893,-5.571 2.944,-3.538 5.803,-6.658 8.598997,-9.446 -5.735997,-9.678 -14.930997,-17.134 -23.124997,-20.587 z"
       fill="#fcd79d"
       data-original="#fcd79d"
       id="path136" /><path
       d="m 147.036,511.635 c -8.912,0 -17.521,-4.829 -21.94,-13.273 -6.336,-12.106 -1.659,-27.056 10.447,-33.393 28.199,-14.76 42.338,-33.368 54.812,-49.787 1.406,-1.851 2.779,-3.657 4.13,-5.407 8.351,-10.813 23.89,-12.811 34.703,-4.459 10.814,8.352 12.81,23.889 4.459,34.703 -1.274,1.65 -2.567,3.352 -3.893,5.097 -14.048,18.491 -33.289,43.814 -71.266,63.692 -3.662,1.918 -7.585,2.827 -11.452,2.827 z"
       fill="#eda751"
       data-original="#eda751"
       id="path138" /><path
       d="m 267.041,512 c -7.107,0 -14.159,-3.046 -19.053,-8.943 -8.724,-10.515 -7.273,-26.113 3.241,-34.838 20.329,-16.867 16.206,-40.008 14.552,-43.865 -5.384,-12.558 0.431,-27.103 12.99,-32.488 12.559,-5.384 27.104,0.432 32.488,12.99 9.518,22.201 10.216,69.373 -28.432,101.442 -4.619,3.833 -10.219,5.702 -15.786,5.702 z"
       fill="#eda751"
       data-original="#eda751"
       id="path140" /><path
       d="m 335.653,365.049 c -12.263,0 -22.905,-9.109 -24.507,-21.594 -1.74,-13.553 7.838,-25.949 21.389,-27.688 17.321,-2.222 70.373,-31.069 101.366,-55.118 10.796,-8.377 26.337,-6.415 34.714,4.38 8.375,10.795 6.415,26.337 -4.38,34.713 -30.933,24.001 -93.388,60.995 -125.401,65.103 -1.068,0.138 -2.133,0.204 -3.181,0.204 z"
       fill="#eda751"
       data-original="#eda751"
       id="path142" /><path
       style="opacity:0.2;enable-background:new"
       d="m 278.771,391.866 c -12.559,5.384 -18.374,19.93 -12.99,32.488 1.654,3.857 5.777,26.998 -14.552,43.865 -1.507,1.25 -2.82,2.645 -3.952,4.142 0.78,0.013 1.561,0.037 2.339,0.037 22.753,0 44.928,-5.508 64.476,-15.793 4.892,-20.332 2.328,-39.712 -2.833,-51.749 -5.384,-12.557 -19.929,-18.373 -32.488,-12.99 z"
       fill="#a35f00"
       data-original="#a35f00"
       id="path148" /><path
       style="opacity:0.2;enable-background:new"
       d="m 229.189,405.317 c -10.813,-8.352 -26.352,-6.354 -34.703,4.459 -1.352,1.75 -2.724,3.556 -4.13,5.407 -7.159,9.422 -14.872,19.565 -25.47,29.289 13.884,10.445 29.768,18.206 46.893,22.865 7.102,-7.914 12.884,-15.516 17.976,-22.219 1.326,-1.745 2.619,-3.447 3.893,-5.097 8.351,-10.815 6.355,-26.353 -4.459,-34.704 z"
       fill="#a35f00"
       data-original="#a35f00"
       id="path150" /><path
       style="opacity:0.2;enable-background:new"
       d="m 168.592,379.349 c -14.126,13.568 -26.84,17.727 -41.103,21.533 4.16,7.859 9.206,15.385 15.123,22.459 1.215,1.453 2.464,2.872 3.735,4.267 13.598,-4.375 28.28,-11.175 43.667,-25.954 6.158,-5.916 6.355,-15.704 0.44,-21.864 -5.913,-6.158 -15.701,-6.356 -21.862,-0.441 z"
       fill="#a35f00"
       data-original="#a35f00"
       id="path152" /><ellipse
       transform="rotate(-82.807468)"
       cx="-312.53012"
       cy="288.75989"
       rx="106.03368"
       ry="114.10243"
       fill="#fcd690"
       data-original="#fcd690"
       id="ellipse156"
       style="stroke-width:0.999969" /><path
       d="m 144.533,271.819 c -18.143,2.152 -29.456,47.092 9.175,50.359 52.761,4.461 106.94,10.438 129.792,24.609 4.01,2.487 9.009,2.496 13.139,0.215 21.706,-11.986 60.284,-11.155 72.69,-13.073 28.737,-4.443 15.33,-49.419 -2.946,-48.403 -18.276,1.016 -221.85,-13.707 -221.85,-13.707 z"
       fill="#bd4568"
       data-original="#bd4568"
       id="path166" /><path
       d="m 164.291,403.677 c -20.785,0 -39.72,-10.032 -49.481,-26.679 -5.724,-9.762 -7.901,-21.174 -6.293,-33.002 1.51,-11.119 6.326,-22.478 14.316,-33.762 7.893,-11.152 23.334,-13.792 34.488,-5.894 11.151,7.896 13.79,23.337 5.894,34.488 -5.632,7.954 -5.922,12.443 -5.691,13.211 0.471,0.71 3.848,2.552 8.437,2.067 13.595,-1.449 25.775,8.397 27.219,21.985 1.446,13.587 -8.397,25.773 -21.984,27.219 -2.317,0.245 -4.624,0.367 -6.905,0.367 z"
       fill="#eda751"
       data-original="#eda751"
       id="path202" /><g
       id="g38708"
       transform="matrix(0.9337528,0,0,0.98087427,356.93141,70.315592)"><path
         style="fill:none;fill-opacity:0;stroke:#13dcf6;stroke-width:40;stroke-linecap:butt;stroke-linejoin:miter;stroke-dasharray:none;stroke-opacity:1;filter:url(#filter20404)"
         d="M -297.91103,208.03033 149.31794,129.74714 26.094397,363.87188 Z"
         id="path38700"
         sodipodi:nodetypes="cccc" /><path
         d="m -320.71724,208.00751 447.229,-78.283 v 0 c -0.08,0.152 -123.2229977,234.124 -123.2229977,234.124 v 0 c -0.106,-0.05 -324.0060023,-155.841 -324.0060023,-155.841"
         style="mix-blend-mode:normal;fill:none;fill-opacity:0;stroke:#61e7f9;stroke-width:30;stroke-dasharray:none;stroke-opacity:1;filter:url(#filter21860)"
         id="path38702" /><path
         d="m -317.20492,207.91605 447.229,-78.283 v 0 c -0.16,0.305 -123.2240012,234.125 -123.2240012,234.125 v 0 c -0.211,-0.102 -324.0049988,-155.842 -324.0049988,-155.842"
         style="mix-blend-mode:normal;fill:none;fill-opacity:0;stroke:#b0f3fc;stroke-width:20;stroke-dasharray:none;stroke-opacity:1;filter:url(#filter23320)"
         id="path38704" /><path
         style="fill:none;fill-opacity:0;stroke:#ffffff;stroke-width:5;stroke-linecap:butt;stroke-linejoin:miter;stroke-dasharray:none;stroke-opacity:1"
         d="M -310.21129,207.88276 137.01769,129.59957 13.794161,363.72431 Z"
         id="path38706"
         sodipodi:nodetypes="cccc" /></g><path
       d="m 312.118,344.968 c -25.319,12.929 -56.44,19.028 -68.629,19.721 -1.313,4.118 -2.028,8.503 -2.028,13.057 0,0.636 0.021,1.266 0.048,1.895 14.745,-0.283 51.067,-6.981 80.367,-22.842 -2.526,-4.509 -5.84,-8.514 -9.758,-11.831 z"
       fill="#000000"
       data-original="#000000"
       id="path204"
       style="opacity:0.07" /><path
       d="m 327.149,381.656 c 0.116,-1.289 0.185,-2.591 0.185,-3.91 0,-4.37 -0.657,-8.586 -1.871,-12.559 -27.918,17.908 -69.839,25.33 -82.074,25.319 1.653,5.317 4.314,10.188 7.755,14.397 18.366,-1.811 50.356,-8.835 76.005,-23.247 z"
       fill="#000000"
       data-original="#000000"
       id="path206"
       style="opacity:0.07" /><g
       id="g38143"><path
         d="m 201.551,156.944 c 23.313,-17.497 39.906,-48.095 10.98,-96.231 C 183.376,12.196 136.821,-2.098 99.742,0.241 90.601,0.817 82.632,6.798 79.525,15.415 66.922,50.365 67.643,99.06 106.084,140.606 c 38.14,41.221 72.155,33.835 95.467,16.338 z"
         fill="#eda751"
         data-original="#eda751"
         id="path168" /><path
         d="m 77.746,20.771 c -10.648,34.458 -8.18,80.368 28.337,119.835 33.059,35.729 63.012,34.932 85.59,22.694 C 182.19,60.479 118.021,29.864 77.746,20.771 Z"
         fill="#ff91ab"
         data-original="#ff91ab"
         id="path170"
         style="fill:#d6e8be;fill-opacity:1" /></g><g
       id="g38147"><path
         d="m 340.235,164.48 c -21.28,-19.92 -34.46,-52.136 -0.488,-96.854 34.24,-45.072 82.07,-54.237 118.677,-47.895 9.025,1.564 16.299,8.373 18.454,17.275 8.742,36.11 2.749,84.44 -39.968,121.576 -42.381,36.846 -75.395,25.818 -96.675,5.898 z"
         fill="#eda751"
         data-original="#eda751"
         id="path172" /><path
         d="m 478.066,42.523 c 6.851,35.409 -0.576,80.781 -41.155,116.059 -36.735,31.937 -66.426,27.899 -87.545,13.286 20.569,-101.187 87.678,-124.67 128.7,-129.345 z"
         fill="#ff91ab"
         data-original="#ff91ab"
         id="path174"
         style="fill:#d6e8be;fill-opacity:1" /></g><path
       d="M 463.347,199.49 C 458.528,288.187 369.566,322.315 262.429,316.494 155.292,310.673 70.552,267.105 75.371,178.409 80.191,89.712 170.949,22.529 278.085,28.35 c 107.136,5.821 190.081,82.444 185.262,171.14 z"
       fill="#ffdc9c"
       data-original="#ffdc9c"
       class=""
       id="path176" /><path
       style="opacity:0.15;enable-background:new"
       d="M 173.158,47.518 C 117.283,73.027 78.477,121.247 75.371,178.409 71.228,254.655 133.267,297.552 218.823,311.791 99.275,231.272 120.784,132.873 173.158,47.518 Z"
       fill="#c17a00"
       data-original="#c17a00"
       id="path178" /><ellipse
       transform="rotate(-86.887232)"
       cx="-166.79872"
       cy="211.34172"
       rx="28.00831"
       ry="35.178135"
       fill="#ff91ab"
       data-original="#ff91ab"
       id="ellipse180"
       style="fill:#89ffff;fill-opacity:0.347518;stroke-width:0.999975" /><ellipse
       transform="rotate(93.112768)"
       cx="166.76138"
       cy="-402.05054"
       rx="28.00831"
       ry="35.178135"
       fill="#ff91ab"
       data-original="#ff91ab"
       id="ellipse182"
       style="fill:#d6e8be;fill-opacity:1;stroke-width:0.999975" /><path
       d="m 223.986,158.729 c -0.138,0 -0.275,-0.003 -0.414,-0.011 -4.136,-0.225 -7.307,-3.76 -7.082,-7.895 l 0.674,-12.403 c 0.226,-4.137 3.764,-7.315 7.896,-7.082 4.136,0.225 7.307,3.76 7.082,7.895 l -0.674,12.403 c -0.217,3.997 -3.527,7.093 -7.482,7.093 z"
       fill="#495059"
       data-original="#495059"
       id="path186" /><path
       d="m 373.429,166.849 c -0.138,0 -0.275,-0.003 -0.414,-0.011 -4.136,-0.225 -7.307,-3.76 -7.082,-7.895 l 0.674,-12.403 c 0.226,-4.137 3.78,-7.308 7.896,-7.082 4.136,0.225 7.307,3.76 7.082,7.896 l -0.674,12.403 c -0.218,3.996 -3.527,7.092 -7.482,7.092 z"
       fill="#495059"
       data-original="#495059"
       id="path188" /><path
       d="m 299.605,172.352 c -0.608,0 -1.218,-0.017 -1.828,-0.05 -9.715,-0.528 -18.725,-5.237 -24.719,-12.92 -2.548,-3.266 -1.966,-7.979 1.3,-10.527 3.265,-2.547 7.979,-1.966 10.526,1.3 3.326,4.264 8.322,6.877 13.707,7.169 5.372,0.292 10.633,-1.763 14.401,-5.643 2.886,-2.97 7.635,-3.04 10.605,-0.151 2.971,2.887 3.039,7.635 0.152,10.605 -6.365,6.551 -15.079,10.217 -24.144,10.217 z"
       fill="#495059"
       data-original="#495059"
       id="path190" /></g></svg>
